<?xml version="1.0" standalone="no"?>
<!DOCTYPE svg PUBLIC "-//W3C//DTD SVG 20010904//EN"
 "http://www.w3.org/TR/2001/REC-SVG-20010904/DTD/svg10.dtd">
<svg version="1.0" xmlns="http://www.w3.org/2000/svg"
 width="800.000000pt" height="800.000000pt" viewBox="0 0 800.000000 800.000000"
 preserveAspectRatio="xMidYMid meet">
<metadata>
Created by potrace 1.14, written by Peter Selinger 2001-2017
</metadata>
<g transform="translate(0.000000,800.000000) scale(0.100000,-0.100000)"
fill="#000000" stroke="none">
<path d="M1440 6605 l1005 -1005 1647 0 1648 0 0 -22 c0 -13 0 -754 0 -1648
l0 -1625 1010 -1010 1010 -1010 0 3663 0 3662 -3662 0 -3663 0 1005 -1005z"/>
<path d="M1408 4163 l-1038 -1038 0 -1448 0 -1447 1453 0 1452 0 1035 1035
1035 1035 -1447 0 -1448 0 -2 1450 -3 1450 -1037 -1037z"/>
</g>
</svg>
