<?xml version="1.0" encoding="utf-8"?>
<!-- Generator: Adobe Illustrator 25.0.0, SVG Export Plug-In . SVG Version: 6.00 Build 0)  -->
<svg version="1.1" id="Layer_1" xmlns="http://www.w3.org/2000/svg" xmlns:xlink="http://www.w3.org/1999/xlink" x="0px" y="0px"
	 viewBox="0 0 257 100" style="enable-background:new 0 0 257 100;" xml:space="preserve">
<style type="text/css">
	.st0{fill:#FFFFFF;}
</style>
<path class="st0" d="M5.9,15.3h7.7l1.4,3.4h4.6L12,1.4H7L0,18.7h4.6L5.9,15.3z M9.5,5.5l2.8,6.7H7L9.5,5.5L9.5,5.5z"/>
<path class="st0" d="M40.2,18.7V1.4h-3.7l-5.5,6.4l-5.5-6.4h-3.8v17.3h4.3V7.9l4.7,5.4h0.7l4.7-5.4v10.8H40.2z"/>
<path class="st0" d="M60.7,10.1c0-4.7-3.2-8.7-9.5-8.7h-7.6v17.3h7.1C57.5,18.7,60.7,15,60.7,10.1z M47.8,15.5V4.6h2.8
	c4.1,0,5.7,2.5,5.7,5.5c0,2.5-1.3,5.5-5.6,5.5H47.8L47.8,15.5z"/>
<path class="st0" d="M78.1,5.4v8.8l5.5,5.5V0L63.9,0l5.4,5.4H78.1z"/>
<path class="st0" d="M77.3,14.4h-8l0-8L63.7,12v7.9h8.1L77.3,14.4z"/>
<path class="st0" d="M21.4,56.6c0,3.3-1.6,5.2-6.1,5.2c-4.6,0-6.1-1.9-6.1-5.2V28.7H0v28.7c0,6.1,3.8,12.4,15.3,12.4
	c11.4,0,15.3-6.3,15.3-12.4V28.7h-9.1L21.4,56.6L21.4,56.6z"/>
<path class="st0" d="M47.6,28.7h-9.1v40.5h25.2v-8.1H47.6V28.7z"/>
<path class="st0" d="M61.1,36.8H72v32.4h9.1V36.8h10.9v-8.1H61.1V36.8z"/>
<path class="st0" d="M106.5,28.7h-9.1v40.5h9.1V28.7z"/>
<path class="st0" d="M146.7,69.3h8.8l-1.7-40.5h-9.1l-9.7,25.8l-9.7-25.8h-9.1l-1.7,40.5h8.8l0.6-22.5l7.1,17.3h8.2l7.1-17.3
	L146.7,69.3z"/>
<path class="st0" d="M172.4,28.7l-12.4,40.5h9.5l2.2-7.9h0l6.8-24.6l6.7,24.6h0l2.2,7.9h9.5l-12.4-40.5H172.4z"/>
<path class="st0" d="M226.5,28.7h-30.9v8.1h10.9v32.4h9.1V36.8h10.9V28.7z"/>
<path class="st0" d="M255.7,44.3h-24.2v8.1h24.2V44.3z"/>
<path class="st0" d="M257,61.2h-25.5v8.1H257V61.2z"/>
<path class="st0" d="M257,28.7h-25.5v8.1H257V28.7z"/>
<path class="st0" d="M99.9,94c0,2.7,1.1,3.6,4.3,3.6c1.2,0,3.1-0.1,4.6-0.4l0.3,2.2c-1.4,0.3-3.5,0.5-5,0.5c-4.8,0-6.7-2.1-6.7-5.8
	v-8.7c0-3.7,1.9-5.8,6.7-5.8c1.5,0,3.5,0.2,5,0.5l-0.3,2.2c-1.5-0.3-3.4-0.4-4.6-0.4c-3.2,0-4.3,0.9-4.3,3.6V94z"/>
<path class="st0" d="M126.4,94c0,3.3-2,6-7.1,6c-5.1,0-7.1-2.7-7.1-6v-8.3c0-3.3,2-6,7.1-6c5.1,0,7.1,2.7,7.1,6V94z M114.7,93.9
	c0,2.4,1.5,3.8,4.6,3.8c3.1,0,4.6-1.4,4.6-3.8v-8.2c0-2.4-1.5-3.8-4.6-3.8c-3.1,0-4.6,1.4-4.6,3.8V93.9z"/>
<path class="st0" d="M133.4,82.9v16.7h-2.4V80h3.5l8.6,16.8V80h2.4v19.7h-3.5L133.4,82.9z"/>
<path class="st0" d="M152.8,82.9v16.7h-2.4V80h3.5l8.6,16.8V80h2.4v19.7h-3.5L152.8,82.9z"/>
<path class="st0" d="M169.9,80h11.6v2.3h-9v6.2h8.4v2.3h-8.4v6.7h9.1v2.3h-11.6L169.9,80L169.9,80z"/>
<path class="st0" d="M187.7,94c0,2.7,1.1,3.6,4.3,3.6c1.2,0,3.1-0.1,4.6-0.4l0.3,2.2c-1.4,0.3-3.5,0.5-5,0.5c-4.8,0-6.7-2.1-6.7-5.8
	v-8.7c0-3.7,1.9-5.8,6.7-5.8c1.5,0,3.5,0.2,5,0.5l-0.3,2.2c-1.5-0.3-3.4-0.4-4.6-0.4c-3.2,0-4.3,0.9-4.3,3.6V94z"/>
<path class="st0" d="M204.8,82.3h-5.9V80h14.3v2.3h-5.9v17.4h-2.5L204.8,82.3L204.8,82.3z"/>
<path class="st0" d="M219,99.7h-2.5V80h2.5V99.7z"/>
<path class="st0" d="M238,94c0,3.3-2,6-7.1,6s-7.1-2.7-7.1-6v-8.3c0-3.3,2-6,7.1-6s7.1,2.7,7.1,6V94z M226.3,93.9
	c0,2.4,1.5,3.8,4.6,3.8c3.1,0,4.6-1.4,4.6-3.8v-8.2c0-2.4-1.5-3.8-4.6-3.8c-3.1,0-4.6,1.4-4.6,3.8V93.9z"/>
<path class="st0" d="M245,82.9v16.7h-2.4V80h3.5l8.6,16.8V80h2.4v19.7h-3.5L245,82.9z"/>
</svg>
