<?xml version="1.0" encoding="utf-8"?>
<!-- Generator: Adobe Illustrator 25.0.0, SVG Export Plug-In . SVG Version: 6.00 Build 0)  -->
<svg version="1.1" id="Layer_1" xmlns="http://www.w3.org/2000/svg" xmlns:xlink="http://www.w3.org/1999/xlink" x="0px" y="0px"
	 viewBox="0 0 257 100" style="enable-background:new 0 0 257 100;" xml:space="preserve">
<g>
	<g id="XMLID_00000161608536936360453330000005003294181282473371_">
		<g id="XMLID_00000070820031053454223340000012103434834628075429_">
			<g id="XMLID_00000163756217580635379220000011444551888538131645_">
				<path d="M24.7,20.3h-4.4L19,17.1h-7.4l-1.2,3.3H6l6.7-16.5h4.8L24.7,20.3z M15.1,7.8l-2.4,6.4h5.1L15.1,7.8z"/>
			</g>
			<g id="XMLID_00000042009768494888298230000002748598299501772177_">
				<path d="M40.8,3.8h3.6v16.5h-4.1V10l-4.5,5.2h-0.6L30.8,10v10.3h-4.1V3.8h3.6l5.3,6.1L40.8,3.8z"/>
			</g>
			<g id="XMLID_00000128450307460828610020000017893736046137497473_">
				<path d="M54.8,3.8c6,0,9.1,3.7,9.1,8.3c0,4.7-3,8.2-9.6,8.2h-6.8V3.8H54.8z M51.7,17.3h2.7c4.1,0,5.4-2.8,5.4-5.2
					c0-2.8-1.5-5.2-5.4-5.2h-2.6C51.7,6.9,51.7,17.3,51.7,17.3z"/>
			</g>
		</g>
		<g id="XMLID_00000100354400843102240650000017435829868468000917_">
			<g id="XMLID_00000075884476297877350260000002457912241069257662_">
				<polygon points="80.6,7.7 72.1,7.7 66.9,2.6 85.8,2.6 85.8,21.4 80.6,16.2 				"/>
			</g>
			<g id="XMLID_00000106854721467602426870000006493158826163247773_">
				<polygon points="72.1,16.3 72.1,8.8 66.8,14.1 66.8,21.6 74.3,21.6 79.6,16.3 				"/>
			</g>
		</g>
	</g>
	<g>
		<g>
			<path d="M30.9,30.1v25.8c0,6.1-3.7,10.8-12.5,10.8S6,62.1,6,55.9V30.1h3.2v25.8c0,5,3.2,7.9,9.3,7.9s9.3-2.9,9.3-7.9V30.1H30.9z"
				/>
			<path d="M39,66.2V29l3.1-0.4v37.6L39,66.2L39,66.2z"/>
			<path d="M63.9,65.7c-1.5,0.6-3.6,1-5.5,1c-4.2,0-6-1.5-6-5.7V42.5h-5.1v-2.7h5.1v-6.2l3.1-0.4v6.7h8.1l-0.3,2.7h-7.7v18.2
				c0,2.3,0.3,3.3,3,3.3c1.5,0,3.1-0.3,4.7-0.8L63.9,65.7z"/>
			<path d="M69.3,34.8V29h3.1v5.8H69.3z M69.3,66.2V39.8h3.1v26.4H69.3z"/>
			<path d="M112.8,66.2V44.8c0-1.9-1-2.7-2.9-2.7c-2.5,0-6.8,1.3-10.1,3v21h-3.1V44.8c0-1.9-1-2.7-2.9-2.7c-2.2,0-6.8,1.3-10.1,3v21
				h-3.1V39.8h2.8l0.2,2.4c2.8-1.4,7.5-2.9,10.7-2.9c2.8,0,4.4,1.1,5.1,2.9c3-1.4,7.8-2.9,11-2.9c4.1,0,5.6,2.3,5.6,6v21L112.8,66.2
				L112.8,66.2z"/>
			<path d="M141.4,66.2h-2.7l-0.2-2.1c-2.5,1.6-5.5,2.6-8.9,2.6c-4.7,0-6.8-2.7-6.8-7.4c0-5.6,2.5-7.3,7.7-7.3h7.8v-5.1
				c0-3.6-1.9-4.8-6.2-4.8c-2.6,0-5.4,0.4-7.8,0.9l-0.5-2.7c2.1-0.6,5.4-1,8.1-1c6.8,0,9.5,2.7,9.5,7.6L141.4,66.2L141.4,66.2z
				 M138.3,54.9h-7.7c-3.6,0-4.7,1.1-4.7,4.5c0,3.1,0.6,4.5,4.3,4.5c2.6,0,5.7-1,8.1-2.7V54.9z"/>
			<path d="M162.6,65.7c-1.5,0.6-3.6,1-5.5,1c-4.2,0-6-1.5-6-5.7V42.5H146v-2.7h5.1v-6.2l3.1-0.4v6.7h8.1l-0.3,2.7h-7.7v18.2
				c0,2.3,0.3,3.3,3,3.3c1.5,0,3.1-0.3,4.7-0.8L162.6,65.7z"/>
			<path d="M176.6,64c2.7,0,5.7-0.5,8.3-1.2l0.5,2.5c-2.4,0.9-5.9,1.5-9.1,1.5c-7.4,0-9.8-3.8-9.8-9.6v-8.3c0-5.4,2.4-9.6,9.9-9.6
				c7.4,0,9.6,4.2,9.6,9.6v5.1h-16.3v3.3C169.7,61.9,171.3,64,176.6,64z M169.7,51.1h13.2v-2.4c0-4.4-1.6-6.8-6.5-6.8
				c-4.9,0-6.7,2.3-6.7,6.8V51.1z"/>
		</g>
		<g>
			<path d="M8.2,91.6c0,3.1,1.4,4.2,5,4.2c1.3,0,3.1-0.1,4.4-0.4l0.2,1.5c-1.5,0.3-3.4,0.4-4.8,0.4c-4.8,0-6.6-2.1-6.6-5.8v-9
				c0-3.7,1.8-5.8,6.6-5.8c1.4,0,3.3,0.1,4.8,0.4l-0.2,1.5c-1.3-0.2-3.1-0.4-4.4-0.4c-3.6,0-5,1.1-5,4.2C8.2,82.7,8.2,91.6,8.2,91.6
				z"/>
			<path d="M25.7,97.4c-4.1,0-5.7-2.3-5.7-5.3v-4.6c0-3,1.6-5.3,5.7-5.3c4.1,0,5.7,2.3,5.7,5.3v4.6C31.4,95.1,29.8,97.4,25.7,97.4z
				 M29.6,87.5c0-2.5-1.2-3.7-3.9-3.7s-3.9,1.2-3.9,3.7v4.7c0,2.5,1.2,3.7,3.9,3.7s3.9-1.2,3.9-3.7V87.5z"/>
			<path d="M44,97.1V85.4c0-1.1-0.6-1.5-1.6-1.5c-1.2,0-3.8,0.7-5.6,1.7v11.6h-1.7V82.6h1.5l0.1,1.3c1.6-0.7,4.2-1.6,5.9-1.6
				c2.3,0,3.1,1.3,3.1,3.3v11.6L44,97.1L44,97.1z"/>
			<path d="M58.9,97.1V85.4c0-1.1-0.6-1.5-1.6-1.5c-1.2,0-3.8,0.7-5.6,1.7v11.6H50V82.6h1.5l0.1,1.3c1.6-0.7,4.2-1.6,5.9-1.6
				c2.3,0,3.1,1.3,3.1,3.3v11.6L58.9,97.1L58.9,97.1z"/>
			<path d="M69.7,95.9c1.5,0,3.2-0.3,4.6-0.7l0.3,1.4c-1.3,0.5-3.3,0.8-5,0.8c-4.1,0-5.4-2.1-5.4-5.3v-4.6c0-3,1.3-5.3,5.4-5.3
				c4.1,0,5.3,2.3,5.3,5.3v2.8h-9v1.8C65.9,94.8,66.8,95.9,69.7,95.9z M65.9,88.8h7.3v-1.3c0-2.5-0.9-3.7-3.6-3.7s-3.7,1.3-3.7,3.7
				V88.8z"/>
			<path d="M79.4,92.5c0,2.6,1,3.4,3.8,3.4c0.9,0,1.9-0.1,3.1-0.3l0.2,1.4c-1,0.3-2.3,0.4-3.3,0.4c-4.1,0-5.5-1.9-5.5-5v-5.1
				c0-3.1,1.4-5,5.5-5c1,0,2.3,0.1,3.3,0.4l-0.2,1.4c-1.2-0.2-2.2-0.3-3.1-0.3c-2.7,0-3.8,0.8-3.8,3.4V92.5z"/>
			<path d="M97.4,96.9c-0.8,0.3-2,0.6-3.1,0.6c-2.3,0-3.3-0.8-3.3-3.1V84.1h-2.8v-1.5H91v-3.4l1.7-0.2v3.7h4.5l-0.2,1.5h-4.3v10.1
				c0,1.3,0.2,1.8,1.7,1.8c0.8,0,1.7-0.1,2.6-0.4L97.4,96.9z"/>
			<path d="M100.3,79.8v-3.2h1.7v3.2H100.3z M100.3,97.1V82.6h1.7v14.6H100.3z"/>
			<path d="M111.4,97.4c-4.1,0-5.7-2.3-5.7-5.3v-4.6c0-3,1.6-5.3,5.7-5.3c4.1,0,5.7,2.3,5.7,5.3v4.6C117,95.1,115.5,97.4,111.4,97.4
				z M115.3,87.5c0-2.5-1.2-3.7-3.9-3.7s-3.9,1.2-3.9,3.7v4.7c0,2.5,1.2,3.7,3.9,3.7s3.9-1.2,3.9-3.7V87.5z"/>
			<path d="M129.6,97.1V85.4c0-1.1-0.6-1.5-1.6-1.5c-1.2,0-3.8,0.7-5.6,1.7v11.6h-1.7V82.6h1.5l0.1,1.3c1.6-0.7,4.2-1.6,5.9-1.6
				c2.3,0,3.1,1.3,3.1,3.3v11.6L129.6,97.1L129.6,97.1z"/>
		</g>
	</g>
</g>
</svg>
