<?xml version="1.0" encoding="utf-8"?>
<!-- Generator: Adobe Illustrator 25.0.0, SVG Export Plug-In . SVG Version: 6.00 Build 0)  -->
<svg version="1.1" id="Layer_1" xmlns="http://www.w3.org/2000/svg" xmlns:xlink="http://www.w3.org/1999/xlink" x="0px" y="0px"
	 viewBox="0 0 257 100" style="enable-background:new 0 0 257 100;" xml:space="preserve">
<style type="text/css">
	.st0{fill:#FFFFFF;}
</style>
<g>
	<g id="XMLID_00000161608536936360453330000005003294181282473371_">
		<g id="XMLID_00000070820031053454223340000012103434834628075429_">
			<g id="XMLID_00000163756217580635379220000011444551888538131645_">
				<path class="st0" d="M21.9,19.5h-4.4l-1.3-3.2H8.8l-1.2,3.3H3.2L9.9,3.1h4.8L21.9,19.5z M12.3,7l-2.4,6.4H15L12.3,7z"/>
			</g>
			<g id="XMLID_00000042009768494888298230000002748598299501772177_">
				<path class="st0" d="M38,3h3.6v16.5h-4.1V9.2L33,14.4h-0.6L28,9.2v10.3h-4.1V3h3.6l5.3,6.1L38,3z"/>
			</g>
			<g id="XMLID_00000128450307460828610020000017893736046137497473_">
				<path class="st0" d="M52,3c6,0,9.1,3.7,9.1,8.3c0,4.7-3,8.2-9.6,8.2h-6.8V3H52z M48.9,16.5h2.7c4.1,0,5.4-2.8,5.4-5.2
					c0-2.8-1.5-5.2-5.4-5.2H49C48.9,6.1,48.9,16.5,48.9,16.5z"/>
			</g>
		</g>
		<g id="XMLID_00000100354400843102240650000017435829868468000917_">
			<g id="XMLID_00000075884476297877350260000002457912241069257662_">
				<polygon class="st0" points="77.8,6.9 69.3,6.9 64.1,1.8 83,1.8 83,20.6 77.8,15.4 				"/>
			</g>
			<g id="XMLID_00000106854721467602426870000006493158826163247773_">
				<polygon class="st0" points="69.3,15.5 69.3,8 64,13.3 64,20.8 71.5,20.8 76.8,15.5 				"/>
			</g>
		</g>
	</g>
	<g>
		<g>
			<path class="st0" d="M28.1,29.3v25.8c0,6.1-3.7,10.8-12.5,10.8S3.2,61.3,3.2,55.1V29.3h3.2v25.8c0,5,3.2,7.9,9.3,7.9
				s9.3-2.9,9.3-7.9V29.3H28.1z"/>
			<path class="st0" d="M36.2,65.4V28.2l3.1-0.4v37.6H36.2L36.2,65.4z"/>
			<path class="st0" d="M61.1,64.9c-1.5,0.6-3.6,1-5.5,1c-4.2,0-6-1.5-6-5.7V41.7h-5.1V39h5.1v-6.2l3.1-0.4v6.7h8.1l-0.3,2.7h-7.7
				V60c0,2.3,0.3,3.3,3,3.3c1.5,0,3.1-0.3,4.7-0.8L61.1,64.9z"/>
			<path class="st0" d="M66.5,34v-5.8h3.1V34H66.5z M66.5,65.4V39h3.1v26.4H66.5z"/>
			<path class="st0" d="M110,65.4V44c0-1.9-1-2.7-2.9-2.7c-2.5,0-6.8,1.3-10.1,3v21h-3.1V44c0-1.9-1-2.7-2.9-2.7
				c-2.2,0-6.8,1.3-10.1,3v21h-3.1V39h2.8l0.2,2.4c2.8-1.4,7.5-2.9,10.7-2.9c2.8,0,4.4,1.1,5.1,2.9c3-1.4,7.8-2.9,11-2.9
				c4.1,0,5.6,2.3,5.6,6v21L110,65.4L110,65.4z"/>
			<path class="st0" d="M138.6,65.4h-2.7l-0.2-2.1c-2.5,1.6-5.5,2.6-8.9,2.6c-4.7,0-6.8-2.7-6.8-7.4c0-5.6,2.5-7.3,7.7-7.3h7.8v-5.1
				c0-3.6-1.9-4.8-6.2-4.8c-2.6,0-5.4,0.4-7.8,0.9l-0.5-2.7c2.1-0.6,5.4-1,8.1-1c6.8,0,9.5,2.7,9.5,7.6V65.4L138.6,65.4z
				 M135.5,54.1h-7.7c-3.6,0-4.7,1.1-4.7,4.5c0,3.1,0.6,4.5,4.3,4.5c2.6,0,5.7-1,8.1-2.7L135.5,54.1L135.5,54.1z"/>
			<path class="st0" d="M159.8,64.9c-1.5,0.6-3.6,1-5.5,1c-4.2,0-6-1.5-6-5.7V41.7h-5.1V39h5.1v-6.2l3.1-0.4v6.7h8.1l-0.3,2.7h-7.7
				V60c0,2.3,0.3,3.3,3,3.3c1.5,0,3.1-0.3,4.7-0.8L159.8,64.9z"/>
			<path class="st0" d="M173.8,63.2c2.7,0,5.7-0.5,8.3-1.2l0.5,2.5c-2.4,0.9-5.9,1.5-9.1,1.5c-7.4,0-9.8-3.8-9.8-9.6v-8.3
				c0-5.4,2.4-9.6,9.9-9.6c7.4,0,9.6,4.2,9.6,9.6v5.1h-16.3v3.3C166.9,61.1,168.5,63.2,173.8,63.2z M166.9,50.3h13.2v-2.4
				c0-4.4-1.6-6.8-6.5-6.8s-6.7,2.3-6.7,6.8V50.3z"/>
		</g>
		<g>
			<path class="st0" d="M5.4,90.8c0,3.1,1.4,4.2,5,4.2c1.3,0,3.1-0.1,4.4-0.4l0.2,1.5c-1.5,0.3-3.4,0.4-4.8,0.4
				c-4.8,0-6.6-2.1-6.6-5.8v-9c0-3.7,1.8-5.8,6.6-5.8c1.4,0,3.3,0.1,4.8,0.4l-0.2,1.5c-1.3-0.2-3.1-0.4-4.4-0.4c-3.6,0-5,1.1-5,4.2
				C5.4,81.9,5.4,90.8,5.4,90.8z"/>
			<path class="st0" d="M22.9,96.6c-4.1,0-5.7-2.3-5.7-5.3v-4.6c0-3,1.6-5.3,5.7-5.3s5.7,2.3,5.7,5.3v4.6
				C28.6,94.3,27,96.6,22.9,96.6z M26.8,86.7c0-2.5-1.2-3.7-3.9-3.7S19,84.2,19,86.7v4.7c0,2.5,1.2,3.7,3.9,3.7s3.9-1.2,3.9-3.7
				V86.7z"/>
			<path class="st0" d="M41.2,96.3V84.6c0-1.1-0.6-1.5-1.6-1.5c-1.2,0-3.8,0.7-5.6,1.7v11.6h-1.7V81.8h1.5l0.1,1.3
				c1.6-0.7,4.2-1.6,5.9-1.6c2.3,0,3.1,1.3,3.1,3.3v11.6L41.2,96.3L41.2,96.3z"/>
			<path class="st0" d="M56.1,96.3V84.6c0-1.1-0.6-1.5-1.6-1.5c-1.2,0-3.8,0.7-5.6,1.7v11.6h-1.7V81.8h1.5l0.1,1.3
				c1.6-0.7,4.2-1.6,5.9-1.6c2.3,0,3.1,1.3,3.1,3.3v11.6L56.1,96.3L56.1,96.3z"/>
			<path class="st0" d="M66.9,95.1c1.5,0,3.2-0.3,4.6-0.7l0.3,1.4c-1.3,0.5-3.3,0.8-5,0.8c-4.1,0-5.4-2.1-5.4-5.3v-4.6
				c0-3,1.3-5.3,5.4-5.3s5.3,2.3,5.3,5.3v2.8h-9v1.8C63.1,94,64,95.1,66.9,95.1z M63.1,88h7.3v-1.3c0-2.5-0.9-3.7-3.6-3.7
				s-3.7,1.3-3.7,3.7C63.1,86.7,63.1,88,63.1,88z"/>
			<path class="st0" d="M76.6,91.7c0,2.6,1,3.4,3.8,3.4c0.9,0,1.9-0.1,3.1-0.3l0.2,1.4c-1,0.3-2.3,0.4-3.3,0.4c-4.1,0-5.5-1.9-5.5-5
				v-5.1c0-3.1,1.4-5,5.5-5c1,0,2.3,0.1,3.3,0.4l-0.2,1.4c-1.2-0.2-2.2-0.3-3.1-0.3c-2.7,0-3.8,0.8-3.8,3.4V91.7z"/>
			<path class="st0" d="M94.6,96.1c-0.8,0.3-2,0.6-3.1,0.6c-2.3,0-3.3-0.8-3.3-3.1V83.3h-2.8v-1.5h2.8v-3.4l1.7-0.2v3.7h4.5
				l-0.2,1.5h-4.3v10.1c0,1.3,0.2,1.8,1.7,1.8c0.8,0,1.7-0.1,2.6-0.4L94.6,96.1z"/>
			<path class="st0" d="M97.5,79v-3.2h1.7V79H97.5z M97.5,96.3V81.8h1.7v14.6L97.5,96.3L97.5,96.3z"/>
			<path class="st0" d="M108.6,96.6c-4.1,0-5.7-2.3-5.7-5.3v-4.6c0-3,1.6-5.3,5.7-5.3s5.7,2.3,5.7,5.3v4.6
				C114.2,94.3,112.7,96.6,108.6,96.6z M112.5,86.7c0-2.5-1.2-3.7-3.9-3.7s-3.9,1.2-3.9,3.7v4.7c0,2.5,1.2,3.7,3.9,3.7
				s3.9-1.2,3.9-3.7V86.7z"/>
			<path class="st0" d="M126.8,96.3V84.6c0-1.1-0.6-1.5-1.6-1.5c-1.2,0-3.8,0.7-5.6,1.7v11.6h-1.7V81.8h1.5l0.1,1.3
				c1.6-0.7,4.2-1.6,5.9-1.6c2.3,0,3.1,1.3,3.1,3.3v11.6L126.8,96.3L126.8,96.3z"/>
		</g>
	</g>
</g>
</svg>
