<svg width="257" height="100" viewBox="0 0 257 100" fill="none" xmlns="http://www.w3.org/2000/svg">
<path d="M5.86589 15.2501H13.5903L15.0083 18.6671H19.6449L11.9689 1.39854H6.97905L0.0145337 18.6671H4.57366L5.86589 15.2501ZM9.53933 5.52692L12.3271 12.2398H7.00325L9.53449 5.52692H9.53933Z" fill="#1D1D1B"/>
<path d="M40.2238 18.6671V1.39854H36.4778L30.9314 7.80164L25.3849 1.39854H21.634V18.6671H25.9415V7.87908L30.6022 13.2997H31.2605L35.9212 7.87908V18.6671H40.2238Z" fill="#1D1D1B"/>
<path d="M60.6818 10.0571C60.6818 5.31892 57.4392 1.39382 51.1329 1.39382H43.5101V18.6672H50.6537C57.5408 18.6672 60.6818 15.0179 60.6818 10.0571ZM47.8176 15.5019V4.56391H50.5763C54.6514 4.56391 56.2486 7.07094 56.2486 10.0329C56.2486 12.5641 54.9563 15.5019 50.6247 15.5019H47.8127H47.8176Z" fill="#1D1D1B"/>
<path d="M78.081 5.43029V14.2291L83.5839 19.7562V0L63.8519 0.0241992L69.2289 5.43029H78.081Z" fill="#1D1D1B"/>
<path d="M77.2631 14.4031H69.229L69.2532 6.42223L63.6535 12.0219V19.906H71.7602L77.2631 14.4031Z" fill="#1D1D1B"/>
<path d="M21.4163 56.6166C21.4163 59.9028 19.8336 61.7903 15.2697 61.7903C10.7057 61.7903 9.12309 59.9028 9.12309 56.6166V28.7488H0V57.4684C0 63.615 3.83315 69.8825 15.2745 69.8825C26.7159 69.8825 30.549 63.615 30.549 57.4684V28.7488H21.4211V56.6166H21.4163Z" fill="#1D1D1B"/>
<path d="M47.5755 28.7488H38.4525V69.2727H63.6438V61.1805H47.5755V28.7488Z" fill="#1D1D1B"/>
<path d="M61.1464 36.841H72.0361V69.2727H81.164V36.841H92.0585V28.7488H61.1464V36.841Z" fill="#1D1D1B"/>
<path d="M106.471 28.7488H97.3436V69.2727H106.471V28.7488Z" fill="#1D1D1B"/>
<path d="M146.69 69.2727H155.514L153.81 28.7488H144.682L134.949 54.5499L125.211 28.7488H116.083L114.38 69.2727H123.203L123.813 46.7578L130.869 64.0409H139.024L146.081 46.7578L146.69 69.2727Z" fill="#1D1D1B"/>
<path d="M172.424 28.7488L160.068 69.2727H169.564L171.751 61.3644H171.79L178.575 36.7781L185.274 61.3644H185.322L187.51 69.2727H197.005L184.591 28.7488H172.424Z" fill="#1D1D1B"/>
<path d="M226.509 28.7488H195.597V36.841H206.491V69.2727H215.619V36.841H226.509V28.7488Z" fill="#1D1D1B"/>
<path d="M255.713 44.2651H231.494V52.3573H255.713V44.2651Z" fill="#1D1D1B"/>
<path d="M256.99 61.1804H231.494V69.2726H256.99V61.1804Z" fill="#1D1D1B"/>
<path d="M256.99 28.7488H231.494V36.841H256.99V28.7488Z" fill="#1D1D1B"/>
<path d="M99.8796 94.0336C99.8796 96.7777 100.944 97.6634 104.158 97.6634C105.339 97.6634 107.256 97.5182 108.761 97.2521L109.027 99.4348C107.609 99.7591 105.542 99.9672 104.066 99.9672C99.2553 99.9672 97.3339 97.9006 97.3339 94.1788V85.5009C97.3339 81.7791 99.2505 79.7125 104.066 79.7125C105.542 79.7125 107.609 79.9206 109.027 80.2449L108.761 82.4276C107.256 82.1615 105.334 82.0163 104.158 82.0163C100.94 82.0163 99.8796 82.9019 99.8796 85.6461V94.0336Z" fill="#1D1D1B"/>
<path d="M126.358 94.0046C126.358 97.2812 124.321 99.9673 119.244 99.9673C114.167 99.9673 112.129 97.2812 112.129 94.0046V85.6801C112.129 82.4035 114.167 79.7174 119.244 79.7174C124.321 79.7174 126.358 82.4035 126.358 85.6801V94.0046ZM114.67 93.9465C114.67 96.3665 116.146 97.7265 119.244 97.7265C122.341 97.7265 123.817 96.3665 123.817 93.9465V85.7382C123.817 83.3183 122.341 81.9583 119.244 81.9583C116.146 81.9583 114.67 83.3183 114.67 85.7382V93.9465Z" fill="#1D1D1B"/>
<path d="M133.357 82.9313V99.6722H130.937V80.0128H134.422L142.983 96.8409V80.0128H145.403V99.6722H141.918L133.357 82.9313Z" fill="#1D1D1B"/>
<path d="M152.842 82.9313V99.6722H150.422V80.0128H153.907L162.468 96.8409V80.0128H164.888V99.6722H161.404L152.842 82.9313Z" fill="#1D1D1B"/>
<path d="M169.907 80.0081H181.479V82.2828H172.448V88.4536H180.831V90.7284H172.448V97.4025H181.513V99.6772H169.912V80.0178L169.907 80.0081Z" fill="#1D1D1B"/>
<path d="M187.708 94.0338C187.708 96.778 188.773 97.6637 191.986 97.6637C193.167 97.6637 195.084 97.5185 196.589 97.2523L196.855 99.435C195.437 99.7593 193.371 99.9674 191.895 99.9674C187.084 99.9674 185.162 97.9008 185.162 94.179V85.5012C185.162 81.7793 187.079 79.7127 191.895 79.7127C193.371 79.7127 195.437 79.9208 196.855 80.2451L196.589 82.4279C195.084 82.1617 193.163 82.0165 191.986 82.0165C188.768 82.0165 187.708 82.9022 187.708 85.6464V94.0338Z" fill="#1D1D1B"/>
<path d="M204.802 82.2828H198.927V80.0081H213.214V82.2828H207.338V99.6724H204.798V82.2828H204.802Z" fill="#1D1D1B"/>
<path d="M219.002 99.6722H216.462V80.0128H219.002V99.6722Z" fill="#1D1D1B"/>
<path d="M237.955 94.0046C237.955 97.2812 235.918 99.9673 230.841 99.9673C225.764 99.9673 223.726 97.2812 223.726 94.0046V85.6801C223.726 82.4035 225.764 79.7174 230.841 79.7174C235.918 79.7174 237.955 82.4035 237.955 85.6801V94.0046ZM226.267 93.9465C226.267 96.3665 227.743 97.7265 230.841 97.7265C233.938 97.7265 235.414 96.3665 235.414 93.9465V85.7382C235.414 83.3183 233.938 81.9583 230.841 81.9583C227.743 81.9583 226.267 83.3183 226.267 85.7382V93.9465Z" fill="#1D1D1B"/>
<path d="M244.954 82.9313V99.6722H242.534V80.0128H246.018L254.58 96.8409V80.0128H257V99.6722H253.515L244.954 82.9313Z" fill="#1D1D1B"/>
</svg>
