<svg width="46" height="50" viewBox="0 0 46 50" fill="none" xmlns="http://www.w3.org/2000/svg">
<path d="M41.4573 10.7332H35.4537C37.0763 10.003 38.2932 9.02948 38.78 7.73141C39.429 6.02769 38.78 4.24283 36.8329 2.37685C34.7235 0.348604 32.533 -0.381563 30.3425 0.186345C26.5294 1.1599 24.0144 6.10882 22.7975 9.02949C21.6616 6.10882 19.1466 1.1599 15.2524 0.186345C13.0619 -0.381563 10.8714 0.348604 8.76201 2.37685C6.8149 4.24283 6.16586 6.02769 6.8149 7.73141C7.30168 9.02948 8.59975 10.003 10.1412 10.7332H3.65084C1.62259 10.7332 0 12.3558 0 14.384V20.5499C0 22.5781 1.62259 24.2007 3.65084 24.2007H4.29988V45.2134C4.29988 47.8095 6.40925 50 9.08653 50H36.6706C39.2668 50 41.4573 47.8906 41.4573 45.2134V24.2007C43.4855 24.2007 45.1081 22.5781 45.1081 20.5499V14.384C45.027 12.3558 43.4044 10.7332 41.4573 10.7332ZM31.0727 3.02589C31.3161 2.94476 31.5595 2.94476 31.7217 2.94476C32.6953 2.94476 33.75 3.43153 34.8047 4.56735C35.2914 5.05413 36.3461 6.10882 36.1027 6.83898C35.5348 8.38045 30.5048 9.67852 25.4747 10.0842C26.6105 7.40689 28.7199 3.59379 31.0727 3.02589ZM9.57331 6.75785C9.32992 6.02769 10.3846 4.973 10.8714 4.48622C12.0072 3.43153 12.9808 2.86363 13.9543 2.86363C14.1977 2.86363 14.4411 2.86363 14.6034 2.94476C17.0372 3.59379 19.0655 7.32576 20.2013 10.003C15.1713 9.59739 10.1412 8.29932 9.57331 6.75785ZM38.5366 45.2134C38.5366 46.268 37.6442 47.1605 36.5895 47.1605H9.0054C7.95071 47.1605 7.05829 46.268 7.05829 45.2134V24.2007H38.4555V45.2134H38.5366ZM42.1875 20.5499C42.1875 21.0367 41.8629 21.3612 41.3762 21.3612H3.65084C3.24519 21.3612 2.83954 21.0367 2.83954 20.5499V14.384C2.83954 13.9784 3.24519 13.5728 3.65084 13.5728H41.3762C41.7818 13.5728 42.1875 13.8973 42.1875 14.384V20.5499Z" fill="black"/>
</svg>
