<svg width="56" height="51" viewBox="0 0 56 51" fill="none" xmlns="http://www.w3.org/2000/svg">
<path d="M55.4106 26.1159C55.3211 19.3192 52.4594 12.8801 47.5407 7.96145C42.1748 2.68502 35.0203 -0.0873335 27.4187 0.0020974C12.8415 0.359821 0.947154 11.8964 0.5 26.1159V27.0997V32.4655V38.6362C0.5 39.8883 1.48374 40.9614 2.64634 41.0509L22.5 50.5306H27.9553C28.8496 50.5306 29.565 49.8151 29.565 48.9208C29.565 48.0265 28.8496 47.4005 27.9553 47.4005H23.2154L9.35366 40.7826C10.1585 40.3354 10.6951 39.5306 10.6951 38.6362V28.62C10.6951 27.2785 9.62195 26.1159 8.19106 26.1159H3.63008C4.16667 13.5956 14.6301 3.40047 27.5081 3.22161C34.2154 3.13218 40.565 5.54681 45.3943 10.2866C49.7764 14.5793 52.1911 20.2135 52.3699 26.2053H47.8089C46.4675 26.2053 45.3049 27.2785 45.3049 28.7094V38.7257C45.3049 40.0671 46.378 41.2297 47.8089 41.2297H52.9959C54.3374 41.2297 55.5 40.1566 55.5 38.7257V32.4655V26.6525L55.4106 26.1159ZM7.56504 37.9208H3.63008V32.4655V29.3354H7.56504V37.9208ZM52.3699 37.9208H48.435V29.246H52.3699V32.4655V37.9208Z" fill="black"/>
</svg>
