<svg width="63" height="62" viewBox="0 0 63 62" fill="none" xmlns="http://www.w3.org/2000/svg">
<path d="M60.3 29.1H53.7C52.8 18.1 44 9.4 33.1 8.5V1.8C33.1 0.8 32.3 0 31.3 0C30.3 0 29.5 0.8 29.5 1.8V8.5C18.6 9.4 9.8 18.1 8.9 29.1H2.3C1.3 29.1 0.5 29.9 0.5 30.9C0.5 31.9 1.3 32.7 2.3 32.7H8.9C9.7 43.8 18.5 52.7 29.5 53.6V59.8C29.5 60.8 30.3 61.6 31.3 61.6C32.3 61.6 33.1 60.8 33.1 59.8V53.4C44.1 52.5 52.9 43.6 53.7 32.5H60.3C61.3 32.5 62.1 31.7 62.1 30.7C62.1 29.8 61.3 29.1 60.3 29.1ZM33.1 49.9V49.2C33.1 48.2 32.3 47.4 31.3 47.4C30.3 47.4 29.5 48.2 29.5 49.2V49.9C20.4 49.1 13.2 41.7 12.4 32.5H15.4C16.4 32.5 17.2 31.7 17.2 30.7C17.2 29.7 16.4 28.9 15.4 28.9H12.4C13.3 19.9 20.5 12.7 29.5 11.8V12.2C29.5 13.2 30.3 14 31.3 14C32.3 14 33.1 13.2 33.1 12.2V11.8C42.1 12.6 49.3 19.8 50.2 28.9H49.8C48.8 28.9 48 29.7 48 30.7C48 31.7 48.8 32.5 49.8 32.5H50.2C49.4 41.7 42.2 49.1 33.1 49.9Z" fill="black"/>
<path d="M36.6 35.2996C38.2 33.8996 39.2 31.7996 39.2 29.4996C39.2 25.0996 35.7 21.5996 31.3 21.5996C26.9 21.5996 23.4 25.0996 23.4 29.4996C23.4 31.7996 24.4 33.8996 26 35.2996C24.1 35.9996 22.4 36.9996 20.9 38.2996C20.2 38.8996 20.1 39.9996 20.8 40.7996C21.1 41.1996 21.6 41.3996 22.1 41.3996C22.5 41.3996 22.9 41.2996 23.3 40.9996C25.6 38.9996 28.4 37.8996 31.4 37.8996C34.4 37.8996 37.3 38.9996 39.5 40.9996C40.2 41.5996 41.3 41.5996 42 40.8996C42.6 40.1996 42.6 39.0996 41.9 38.3996C40.2 36.9996 38.5 35.9996 36.6 35.2996ZM31.3 25.0996C33.7 25.0996 35.7 27.0996 35.7 29.4996C35.7 31.8996 33.7 33.8996 31.3 33.8996C28.9 33.8996 26.9 31.8996 26.9 29.4996C26.9 26.9996 28.9 25.0996 31.3 25.0996Z" fill="black"/>
</svg>
