<svg width="50" height="50" viewBox="0 0 50 50" fill="none" xmlns="http://www.w3.org/2000/svg">
<g clip-path="url(#clip0_3021_4958)">
<path d="M46.0556 50C46.018 44.9912 44.4653 40.5084 41.2722 36.6516C37.7285 32.3691 33.1956 29.7646 27.6483 29.1009C21.2497 28.3246 15.6023 30.1277 10.8314 34.4728C6.91206 38.0416 4.69568 42.4994 4.08211 47.7711C3.99445 48.5099 3.99445 49.2612 3.95689 50.0125H0.0500488C0.45075 38.4798 6.28596 30.7789 16.7042 26.296C16.6165 26.2209 16.4788 26.1207 16.3411 26.008C12.7097 23.1655 10.7438 19.4465 10.5935 14.8259C10.4933 11.8332 11.2822 9.06586 12.9351 6.56148C14.9136 3.58127 17.6183 1.5402 21.0743 0.576008C22.0385 0.313048 23.0403 0.187829 24.0295 0C24.6807 0 25.3318 0 25.9829 0C26.7593 0.137741 27.5607 0.200351 28.3245 0.413223C33.734 1.85324 37.3904 5.23416 38.868 10.6436C40.4082 16.3035 38.8429 21.1996 34.5855 25.2317C34.1723 25.6324 33.6964 25.9704 33.2206 26.3586C33.3583 26.4212 33.4585 26.4713 33.5587 26.5089C36.9396 27.736 39.9073 29.6268 42.4618 32.1437C46.2434 35.8878 48.6351 40.3832 49.5617 45.6424C49.7245 46.594 49.8247 47.5707 49.9499 48.5224V49.9875H46.0556V50ZM24.9937 24.9937C30.7663 24.9937 35.4996 20.2855 35.5246 14.4753C35.5497 8.67769 30.8039 3.90684 25.0062 3.89431C19.2336 3.89431 14.5003 8.60255 14.4753 14.4127C14.4503 20.2104 19.1961 24.9812 24.9937 24.9937Z" fill="black"/>
</g>
<defs>
<clipPath id="clip0_3021_4958">
<rect width="49.8998" height="50" fill="white" transform="translate(0.0500488)"/>
</clipPath>
</defs>
</svg>
