<svg width="47" height="50" viewBox="0 0 47 50" fill="none" xmlns="http://www.w3.org/2000/svg">
<path d="M45.7724 37.2353C44.7967 34.0646 41.626 32.1947 38.5366 33.089C35.6098 33.9833 31.626 35.1215 28.6992 36.0158C29.1057 34.8776 28.9431 33.9833 28.6992 33.2516C28.0488 31.5443 26.0976 30.7313 24.4715 30.7313H16.5041C15.7724 30.7313 15.0407 30.4061 14.3089 29.6743C13.4959 28.9426 12.439 28.5361 11.3008 28.5361H4.87805C2.19512 28.5361 0 30.8126 0 33.5768V43.8207C0 46.6662 2.19512 48.9426 4.95935 48.9426H12.6829C13.6585 48.9426 14.6341 48.6174 15.4472 48.0483L15.6098 48.1296C17.8049 49.3491 20.3252 49.9995 22.8455 49.9995C24.3902 49.9995 25.935 49.7556 27.3171 49.3491L41.7073 44.9589H41.7886C45.8537 43.4142 46.5041 39.8369 45.7724 37.2353ZM4.95935 46.0971C3.82114 46.0971 2.84553 45.0402 2.84553 43.8207V33.5768C2.84553 32.3573 3.73984 31.3817 4.87805 31.3817H11.3008C11.7886 31.3817 12.1951 31.6256 12.3577 31.7882C12.6016 32.0321 12.9268 32.276 13.1707 32.4386V46.0158C13.0081 46.0971 12.8455 46.0971 12.6829 46.0971H4.95935ZM40.813 42.276L26.5041 46.6662C25.3659 46.9914 24.1463 47.2353 22.9268 47.2353C20.8943 47.2353 18.8618 46.7475 16.9919 45.6906L16.0163 45.2028V33.5768C16.1789 33.5768 16.3415 33.5768 16.5041 33.5768H24.4715C25.2033 33.5768 25.935 33.902 26.0976 34.3085C26.2602 34.7963 25.935 35.8532 24.3089 37.3979C23.8211 37.8857 23.7398 38.5361 24.065 39.1052C24.6341 40.1621 24.6341 40.1622 32.5203 37.8044C35.935 36.8288 39.3496 35.7719 39.3496 35.7719C40.8943 35.3654 42.5203 36.2597 43.0081 37.967C43.3333 39.1865 43.4959 41.3004 40.813 42.276Z" fill="black"/>
<path d="M38.0487 11.5447C41.2195 11.5447 43.8211 8.94309 43.8211 5.77236C43.8211 2.60163 41.2195 0 38.0487 0C34.878 0 32.2764 2.60163 32.2764 5.77236C32.2764 8.94309 34.9593 11.5447 38.0487 11.5447ZM38.0487 2.92683C39.6747 2.92683 40.9756 4.22764 40.9756 5.85366C40.9756 7.47967 39.6747 8.78049 38.0487 8.78049C36.4227 8.78049 35.1219 7.47967 35.1219 5.85366C35.2032 4.14634 36.504 2.92683 38.0487 2.92683Z" fill="black"/>
<path d="M36.1788 29.1872H38.8618C42.0325 29.1872 44.5528 26.6668 44.5528 23.4961V18.862C44.5528 15.6912 42.0325 13.1709 38.8618 13.1709H36.4227C33.252 13.1709 30.7317 15.6912 30.7317 18.862V23.4961C30.813 26.6668 33.252 29.1872 36.1788 29.1872ZM33.5772 18.862C33.5772 17.3172 34.878 16.0164 36.4227 16.0164H38.8618C40.4065 16.0164 41.7073 17.3172 41.7073 18.862V23.4961C41.7073 25.0408 40.4065 26.3416 38.8618 26.3416H36.1788C34.7967 26.3416 33.5772 25.0408 33.5772 23.4148V18.862Z" fill="black"/>
</svg>
