<svg width="44" height="50" viewBox="0 0 44 50" fill="none" xmlns="http://www.w3.org/2000/svg">
<g clip-path="url(#clip0_3021_4975)">
<path d="M20.7293 0C21.5802 0 22.4312 0 23.2934 0C23.4523 0.0337762 23.6111 0.0562936 23.7699 0.0900698C25.0974 0.360279 26.4589 0.517901 27.7523 0.911957C31.0766 1.94776 33.8903 3.80545 36.1935 6.41747C38.8824 9.46859 40.4254 13.0151 40.7885 17.0345C41.1742 21.2677 40.2099 25.2083 37.884 28.7998C37.6911 29.0925 37.6798 29.3177 37.8386 29.633C39.8014 33.506 41.7642 37.3902 43.7043 41.2745C43.8745 41.6235 44.022 42.0513 43.9993 42.4229C43.9426 43.256 43.2959 43.7176 42.3315 43.7289C40.1645 43.7289 37.9974 43.7289 35.8418 43.7289C35.5127 43.7289 35.3085 43.8302 35.1156 44.0892C33.9016 45.7217 32.6763 47.3542 31.4283 48.9642C31.122 49.3583 30.6795 49.6622 30.2937 50H29.6016C29.023 49.7748 28.6713 49.347 28.3876 48.7953C26.5723 45.1588 24.7116 41.5447 22.919 37.8969C22.6013 37.2439 22.1248 37.5141 21.6937 37.4353C21.3079 37.3565 21.2399 37.6492 21.1151 37.8969C19.2884 41.5109 17.4617 45.125 15.6578 48.7503C15.3741 49.3132 15.0451 49.7748 14.4438 50.0113H13.7517C13.3773 49.6848 12.9348 49.4145 12.6398 49.0318C11.3804 47.4218 10.1665 45.7892 8.95247 44.1567C8.72556 43.8415 8.4873 43.7401 8.10154 43.7401C5.96855 43.7627 3.83556 43.7514 1.70257 43.7401C0.772226 43.7401 0.125521 43.3236 0.0347558 42.558C-0.0106269 42.1527 0.114176 41.6798 0.295707 41.3083C2.22447 37.4353 4.17593 33.5623 6.13874 29.7118C6.32027 29.3402 6.30892 29.0925 6.08201 28.7548C3.65403 24.9268 2.71234 20.7498 3.31366 16.2576C3.79018 12.6886 5.20839 9.50236 7.53426 6.75524C10.2345 3.5465 13.6382 1.45238 17.734 0.506643C18.7211 0.281468 19.7309 0.168881 20.7293 0ZM6.07066 18.7233C6.05932 27.3812 13.1504 34.4292 21.966 34.5193C30.6681 34.5981 37.9067 27.4263 37.918 18.7345C37.918 10.0653 30.7929 2.9723 22.0341 2.93853C13.3092 2.90475 6.09336 10.0315 6.08201 18.7233H6.07066ZM13.8311 45.7667L18.2106 37.075C14.3757 36.2531 11.1535 34.4742 8.40788 31.7158L3.82422 40.8129C5.65087 40.8129 7.35273 40.8354 9.05458 40.8129C9.7807 40.8016 10.2913 41.0718 10.7224 41.646C11.7208 43.0083 12.7646 44.3481 13.8425 45.778L13.8311 45.7667ZM40.1645 40.8129L35.5808 31.7158C32.8352 34.4855 29.6016 36.2644 25.7781 37.0862L30.1462 45.7555C30.2937 45.5641 30.4185 45.429 30.5206 45.2939C31.3489 44.2018 32.2225 43.1434 32.9826 42.0063C33.584 41.1169 34.3101 40.7341 35.4106 40.7904C36.965 40.8692 38.5193 40.8129 40.1758 40.8129H40.1645Z" fill="black"/>
<path d="M14.0354 27.2121C14.1715 25.3432 14.2963 23.4855 14.4325 21.6391C14.4552 21.29 14.3757 21.0311 14.1375 20.7609C12.9235 19.3535 11.7322 17.9237 10.5296 16.5051C9.55382 15.3567 9.92823 14.2083 11.4032 13.8368C13.1958 13.3864 14.9884 12.9361 16.781 12.497C17.1554 12.4069 17.405 12.2493 17.6093 11.9115C18.585 10.3353 19.5834 8.75909 20.5818 7.19412C21.376 5.94441 22.59 5.94441 23.3842 7.19412C24.3826 8.75909 25.3697 10.3353 26.3454 11.9115C26.5497 12.2493 26.7993 12.4069 27.1737 12.497C29.0003 12.9361 30.827 13.3977 32.6537 13.848C34.0038 14.1858 34.3895 15.3454 33.4932 16.415C32.2792 17.8674 31.0426 19.2973 29.8399 20.7609C29.6697 20.9748 29.5449 21.3126 29.5563 21.5715C29.6584 23.4742 29.8059 25.3657 29.9307 27.2684C29.9988 28.2592 29.4995 28.946 28.6373 29.0135C28.3082 29.0361 27.9565 28.946 27.6389 28.8221C25.8689 28.1354 24.1217 27.4148 22.3518 26.728C22.1248 26.6379 21.8072 26.6379 21.5803 26.728C19.8217 27.4035 18.0631 28.0565 16.3499 28.8221C15.1359 29.3738 13.8085 28.687 14.0127 27.1784L14.0354 27.2121ZM26.8673 25.3657C26.7652 23.8908 26.6858 22.5285 26.561 21.1662C26.5043 20.5245 26.6291 19.9953 27.0716 19.4999C27.8998 18.5542 28.694 17.5859 29.5109 16.6289C29.6244 16.5051 29.7151 16.3587 29.8513 16.1786C28.3877 15.8183 27.0148 15.4693 25.6307 15.1428C25.052 15.0077 24.6322 14.715 24.3259 14.2083C23.6565 13.105 22.9644 12.0241 22.2723 10.9433C22.1929 10.8194 22.1022 10.6956 21.9887 10.538C21.342 11.5625 20.6726 12.497 20.1394 13.499C19.5721 14.5911 18.7325 15.154 17.5185 15.3567C16.3953 15.5481 15.3061 15.8859 14.1488 16.1786C14.285 16.3475 14.3644 16.4601 14.4552 16.5726C15.204 17.4621 15.9188 18.374 16.7016 19.2184C17.2916 19.8489 17.5639 20.5245 17.405 21.3914C17.3256 21.7854 17.337 22.202 17.3143 22.6073C17.2575 23.4968 17.2008 24.3862 17.1441 25.3432C17.371 25.2531 17.5412 25.2081 17.7 25.1405C18.8346 24.6902 19.9805 24.2398 21.1151 23.767C21.7051 23.5193 22.2723 23.4855 22.8623 23.767C23.5317 24.071 24.2238 24.3186 24.9045 24.6001C25.5286 24.8478 26.1412 25.0842 26.8673 25.377V25.3657Z" fill="black"/>
</g>
<defs>
<clipPath id="clip0_3021_4975">
<rect width="43.9759" height="50" fill="white" transform="translate(0.012207)"/>
</clipPath>
</defs>
</svg>
