<svg width="62" height="54" viewBox="0 0 62 54" fill="none" xmlns="http://www.w3.org/2000/svg">
<path d="M23.925 17.1996C23.925 21.0996 27.125 24.2996 31.025 24.2996C34.925 24.2996 38.125 21.0996 38.125 17.1996C38.125 13.2996 34.925 10.0996 31.025 10.0996C27.125 10.1996 23.925 13.3996 23.925 17.1996ZM34.525 17.1996C34.525 19.1996 32.925 20.7996 30.925 20.7996C28.925 20.7996 27.325 19.1996 27.325 17.1996C27.325 15.1996 28.925 13.5996 30.925 13.5996C32.925 13.5996 34.525 15.2996 34.525 17.1996Z" fill="black"/>
<path d="M61.025 35.7996L56.325 31.0996C55.825 30.5996 55.025 30.3996 54.325 30.6996L49.125 32.9996C48.225 33.3996 47.825 34.3996 48.225 35.2996C48.625 36.1996 49.625 36.5996 50.525 36.1996L52.625 35.2996C50.725 40.1996 47.225 44.1996 42.825 46.7996V36.7996C42.825 31.6996 39.125 27.5996 34.425 27.5996H26.825C22.225 27.5996 18.425 31.6996 18.425 36.7996V46.4996C13.925 43.6996 10.425 39.2996 8.72498 33.9996C8.42498 33.0996 7.42498 32.5996 6.52499 32.8996C5.62499 33.1996 5.12499 34.1996 5.42499 35.0996C9.02499 46.1996 19.325 53.5996 30.925 53.5996C42.325 53.5996 52.325 46.4996 56.225 35.7996L58.525 38.0996C58.825 38.3996 59.325 38.5996 59.725 38.5996C60.125 38.5996 60.625 38.3996 60.925 38.0996C61.725 37.5996 61.725 36.4996 61.025 35.7996ZM22.025 48.3996V36.8996C22.025 33.7996 24.225 31.1996 26.925 31.1996H30.225L28.525 35.9996C28.325 36.5996 28.325 37.1996 28.525 37.6996L29.925 42.2996C30.225 43.1996 31.425 43.1996 31.725 42.2996L33.125 37.6996C33.325 37.0996 33.325 36.4996 33.125 35.9996L31.425 31.1996H34.725C37.425 31.1996 39.625 33.6996 39.625 36.8996V48.5996C36.925 49.5996 34.025 50.1996 31.025 50.1996C27.825 50.1996 24.825 49.5996 22.025 48.3996Z" fill="black"/>
<path d="M7.325 25.4L12.925 22.4C13.825 21.9 14.125 20.9 13.625 20C13.125 19.2 12.125 18.8 11.225 19.3L8.425 20.8C11.125 10.6 20.325 3.4 31.025 3.4C41.825 3.4 51.125 10.7 53.825 21.2C54.025 22.1 55.025 22.7 55.925 22.5C56.825 22.3 57.425 21.3 57.225 20.4C54.225 8.4 43.425 0 31.025 0C18.825 0 8.225 8.2 5.025 20L3.025 18C2.325 17.3 1.225 17.3 0.525 18C-0.175 18.7 -0.175 19.8 0.525 20.5L5.225 25.2C5.525 25.5 6.025 25.7 6.425 25.7C6.825 25.6 7.025 25.5 7.325 25.4Z" fill="black"/>
</svg>
