<svg width="55" height="50" viewBox="0 0 55 50" fill="none" xmlns="http://www.w3.org/2000/svg">
<path d="M27.1965 12.4113C30.654 12.4113 33.4022 9.57447 33.4022 6.20567C33.4022 2.83688 30.5653 0 27.1965 0C23.7391 0 20.9908 2.83688 20.9908 6.20567C20.9908 9.57447 23.7391 12.4113 27.1965 12.4113ZM27.1965 3.01418C28.9696 3.01418 30.2994 4.43262 30.2994 6.11702C30.2994 7.80142 28.8809 9.21986 27.1965 9.21986C25.4235 9.21986 24.0937 7.80142 24.0937 6.11702C24.0937 4.43262 25.4235 3.01418 27.1965 3.01418Z" fill="black"/>
<path d="M19.4837 21.5427C21.4341 19.415 24.271 18.1739 27.2852 18.1739C30.2107 18.1739 33.0476 19.415 35.0866 21.5427C35.3525 21.8973 35.7958 22.0746 36.2391 22.0746C36.5937 22.0746 37.0369 21.8973 37.3029 21.6314C37.9235 21.0108 38.0121 20.0356 37.3915 19.415C34.8206 16.6668 31.1859 14.9824 27.2852 14.9824C23.4731 14.9824 19.8384 16.5782 17.1788 19.415C16.5582 20.0356 16.6469 21.0108 17.2674 21.6314C17.9766 22.1633 18.9518 22.1633 19.4837 21.5427Z" fill="black"/>
<path d="M10.7958 40.5139C14.2533 40.5139 17.0015 37.677 17.0015 34.3082C17.0015 30.9394 14.1646 28.1025 10.7958 28.1025C7.42703 28.1025 4.59015 30.9394 4.59015 34.3082C4.59015 37.677 7.33838 40.5139 10.7958 40.5139ZM10.7958 31.1167C12.5689 31.1167 13.8987 32.5352 13.8987 34.2196C13.8987 35.904 12.4802 37.3224 10.7958 37.3224C9.11143 37.3224 7.69299 35.904 7.69299 34.2196C7.69299 32.5352 9.02277 31.1167 10.7958 31.1167Z" fill="black"/>
<path d="M10.5299 42.9082C6.71779 42.9082 3.08304 44.5039 0.423466 47.3408C-0.197101 47.9614 -0.108449 48.9366 0.512118 49.5571C1.13269 50.1777 2.10786 50.0891 2.72843 49.4685C4.67879 47.3408 7.51567 46.0997 10.5299 46.0997C13.4554 46.0997 16.2923 47.3408 18.3313 49.4685C18.5972 49.8231 19.0405 50.0004 19.4838 50.0004C19.8384 50.0004 20.2816 49.8231 20.5476 49.5571C21.1681 48.9366 21.2568 47.9614 20.6362 47.3408C17.9767 44.5039 14.3419 42.9082 10.5299 42.9082Z" fill="black"/>
<path d="M43.5972 40.5139C47.0547 40.5139 49.8029 37.677 49.8029 34.3082C49.8029 30.9394 46.966 28.1025 43.5972 28.1025C40.2284 28.1025 37.3915 30.9394 37.3915 34.3082C37.3915 37.677 40.1398 40.5139 43.5972 40.5139ZM43.5972 31.1167C45.3703 31.1167 46.7001 32.5352 46.7001 34.2196C46.7001 35.904 45.2816 37.3224 43.5972 37.3224C41.9128 37.3224 40.4944 35.904 40.4944 34.2196C40.4944 32.5352 41.9128 31.1167 43.5972 31.1167Z" fill="black"/>
<path d="M54.1469 47.3408C51.576 44.5926 47.9412 42.9082 44.0405 42.9082C40.2284 42.9082 36.5937 44.5039 33.9341 47.3408C33.3135 47.9614 33.4022 48.9366 34.0228 49.5571C34.6433 50.1777 35.6185 50.0891 36.2391 49.4685C38.1894 47.3408 41.0263 46.0997 44.0405 46.0997C47.0547 46.0997 49.8029 47.3408 51.8419 49.4685C52.1079 49.8231 52.5511 50.0004 52.9944 50.0004C53.349 50.0004 53.7923 49.8231 54.0582 49.5571C54.6788 48.9366 54.6788 47.9614 54.1469 47.3408Z" fill="black"/>
<path d="M32.5157 30.5849L28.7923 28.9005V24.9112C28.7923 24.0246 28.083 23.3154 27.2852 23.3154C26.4873 23.3154 25.6008 24.0246 25.6008 24.9112V28.7232L21.7887 30.5849C20.9908 30.9395 20.7249 31.9147 21.0795 32.6239C21.4341 33.4218 22.4093 33.6878 23.1185 33.3332L27.0192 31.4715L31.1859 33.3332C31.3632 33.4218 31.6291 33.5105 31.8064 33.5105C32.427 33.5105 32.9589 33.1559 33.2249 32.6239C33.6681 31.8261 33.3135 30.9395 32.5157 30.5849Z" fill="black"/>
</svg>
