<svg width="50" height="50" viewBox="0 0 50 50" fill="none" xmlns="http://www.w3.org/2000/svg">
<g clip-path="url(#clip0_3021_4966)">
<path d="M28.1238 50H21.6884C20.9571 49.7489 20.6019 49.1838 20.4347 48.4512C20.0586 46.8606 19.6407 45.27 19.2646 43.6794C19.181 43.3654 19.0557 43.1771 18.7423 43.0724C17.9901 42.8003 17.2588 42.4864 16.5275 42.1725C16.2558 42.0469 16.0678 42.0469 15.8171 42.2143C14.3754 43.0933 12.9128 43.9514 11.4711 44.8305C10.489 45.4165 9.92488 45.3537 9.1309 44.5584C7.91903 43.3445 6.68627 42.1306 5.4744 40.8958C4.68042 40.1005 4.61774 39.5354 5.20278 38.5517C6.08034 37.1076 6.937 35.6425 7.81456 34.1984C7.96082 33.9473 7.96082 33.7589 7.85635 33.4868C7.52204 32.7543 7.22952 32.0218 6.95789 31.2892C6.83253 30.9753 6.66537 30.8497 6.35196 30.766C4.764 30.3893 3.17603 29.9707 1.56717 29.594C0.835873 29.4265 0.271727 29.0917 0.0209961 28.3382V21.892C0.271727 21.1595 0.835873 20.8246 1.56717 20.6362C3.15514 20.2595 4.7431 19.8409 6.35196 19.4642C6.66537 19.3805 6.85342 19.2549 6.95789 18.941C7.22952 18.1875 7.54293 17.455 7.85635 16.7434C7.98171 16.4713 7.98171 16.283 7.81456 16.0318C6.937 14.5877 6.05944 13.1436 5.20278 11.6785C4.59684 10.6739 4.68042 10.1298 5.51619 9.29259C6.72806 8.07869 7.93992 6.88573 9.1309 5.67183C9.92488 4.87652 10.489 4.81373 11.4711 5.39975C12.9128 6.27878 14.3754 7.13688 15.8171 8.01591C16.0678 8.16241 16.2558 8.18334 16.5275 8.05777C17.2588 7.7229 17.9901 7.42989 18.7423 7.15781C19.0557 7.03223 19.181 6.8648 19.2646 6.55086C19.6616 4.83466 20.1004 3.11846 20.5183 1.38133C20.7272 0.397656 21.2287 0 22.1898 0C23.9867 0 25.8045 0 27.6014 0C28.5626 0 29.064 0.397656 29.2939 1.33947C29.7118 3.0766 30.1505 4.81373 30.5475 6.55086C30.6102 6.84387 30.7565 7.0113 31.049 7.11595C31.7803 7.38803 32.4907 7.68104 33.2011 7.99498C33.4936 8.12055 33.7235 8.14148 33.9951 7.95312C35.4577 7.05316 36.9203 6.19506 38.3829 5.31603C39.2813 4.77187 39.8664 4.85559 40.5977 5.60904C41.8304 6.84387 43.0632 8.07869 44.296 9.29259C45.0899 10.0879 45.1735 10.653 44.5676 11.6367C43.69 13.0808 42.8334 14.5458 41.9558 15.99C41.8095 16.2411 41.7886 16.4295 41.914 16.7015C42.2483 17.4341 42.5617 18.1666 42.8125 18.8991C42.9378 19.2131 43.105 19.3386 43.4184 19.4224C45.0899 19.82 46.7615 20.2386 48.433 20.6362C49.1643 20.8037 49.6658 21.1595 49.9165 21.8711V28.3173C49.6658 29.0289 49.1434 29.3847 48.433 29.5521C46.7615 29.9288 45.0899 30.3684 43.4184 30.766C43.105 30.8497 42.9169 30.9544 42.8125 31.2892C42.5408 32.0427 42.2274 32.7752 41.914 33.4868C41.7886 33.7589 41.8095 33.9473 41.9558 34.1984C42.8543 35.6635 43.7109 37.1285 44.5885 38.5936C45.1526 39.5144 45.069 40.1005 44.3169 40.8539C43.105 42.0678 41.8722 43.3026 40.6604 44.5165C39.8246 45.3537 39.2813 45.4165 38.2784 44.8305C36.8367 43.9724 35.395 43.1143 33.9742 42.2352C33.6817 42.0678 33.4727 42.0678 33.1802 42.1934C32.4907 42.5073 31.7803 42.8003 31.0699 43.0724C30.7565 43.198 30.5893 43.3445 30.5057 43.7003C30.1296 45.2909 29.7118 46.8815 29.3357 48.4722C29.1685 49.2047 28.8342 49.7489 28.082 50.0209L28.1238 50ZM8.14887 10.8832C9.00553 12.3273 9.8622 13.7924 10.7815 15.2365C11.2412 15.9481 11.1994 16.5969 10.8442 17.3294C10.3219 18.3968 9.88309 19.4851 9.4861 20.6153C9.21448 21.4106 8.7757 21.8711 7.93993 22.0594C6.41464 22.4152 4.88936 22.8338 3.34319 23.1896C3.02977 23.2524 2.90441 23.3571 2.9253 23.6919C2.94619 24.6128 2.9253 25.5546 2.9253 26.4755C2.9253 26.7685 3.00888 26.8941 3.3014 26.9569C4.86847 27.3336 6.41464 27.7522 7.98171 28.108C8.73391 28.2964 9.17269 28.7149 9.42342 29.4475C9.8413 30.6404 10.3428 31.8125 10.8651 32.9427C11.1576 33.5915 11.1994 34.1775 10.8024 34.7844C10.1338 35.8728 9.4861 36.982 8.81748 38.0913C8.56675 38.5098 8.31602 38.9284 8.12797 39.2633L10.6771 41.8167C12.1188 40.9376 13.6232 40.0586 15.1067 39.1586C15.7544 38.761 16.3394 38.7819 17.0289 39.0959C18.1363 39.6191 19.2855 40.1005 20.4347 40.4981C21.2078 40.7702 21.6466 41.2097 21.8346 42.005C22.1898 43.5747 22.6077 45.1235 22.9838 46.6932C23.0465 46.9443 23.151 47.028 23.4017 47.028C24.3419 47.028 25.2822 47.028 26.2224 47.028C26.5567 47.028 26.6612 46.9025 26.7239 46.6095C27.1 45.0607 27.497 43.5329 27.8731 41.9632C28.0611 41.1888 28.4999 40.7493 29.2521 40.4981C30.4222 40.1005 31.5505 39.6191 32.6578 39.0959C33.3683 38.761 33.9742 38.761 34.6219 39.1586C35.9591 39.9958 37.3173 40.7911 38.6754 41.6074C38.8217 41.6911 38.947 41.7539 39.0306 41.8167L41.5588 39.2842C41.5588 39.2842 41.4126 39.0331 41.329 38.9075C40.4932 37.5262 39.6783 36.1448 38.8426 34.7635C38.5082 34.1984 38.4874 33.6543 38.759 33.0473C39.3022 31.8125 39.8246 30.5358 40.326 29.28C40.5559 28.694 40.9111 28.3173 41.517 28.1708C42.1647 28.0243 42.8125 27.8568 43.4602 27.6894C44.6303 27.3964 45.8003 27.1243 46.9704 26.8313C46.9704 25.7011 46.9704 24.6128 46.9704 23.5245C46.9704 23.4198 46.7615 23.2315 46.6152 23.1896C45.0064 22.792 43.3975 22.3734 41.7886 22.0176C40.9947 21.8292 40.5559 21.3897 40.2843 20.6153C39.8664 19.4433 39.3858 18.2922 38.8634 17.162C38.5709 16.5132 38.55 15.9272 38.9261 15.3202C39.7619 13.9389 40.5768 12.5576 41.4125 11.1762C41.4961 11.0506 41.5588 10.9041 41.6006 10.8414L39.0515 8.30892C37.6098 9.16702 36.1054 10.067 34.6219 10.9669C33.9742 11.3646 33.3891 11.3437 32.6996 11.0297C31.6131 10.5065 30.4848 10.0251 29.3357 9.62746C28.5208 9.35538 28.0611 8.89494 27.8731 8.05777C27.5179 6.44621 27.1 4.87652 26.7239 3.26496C26.6612 3.03474 26.6403 2.88824 26.3478 2.88824C25.2822 2.88824 24.1957 2.88824 23.1092 2.88824C23.0674 3.01381 23.0256 3.11846 23.0047 3.22311C22.6077 4.83466 22.1898 6.44621 21.8346 8.05777C21.6466 8.89494 21.1869 9.35538 20.372 9.62746C19.2855 9.98326 18.199 10.4228 17.1752 10.946C16.3603 11.3646 15.6708 11.3646 14.8977 10.8623C13.4769 9.96233 12.0352 9.12516 10.6353 8.28799L8.08619 10.8414L8.14887 10.8832Z" fill="black"/>
<path d="M35.1442 25.0942C35.1442 30.7242 30.5265 35.3495 24.8851 35.3495C19.2436 35.3495 14.626 30.7451 14.626 25.0942C14.626 19.4642 19.2436 14.8389 24.8851 14.8389C30.5265 14.8389 35.1442 19.4433 35.1442 25.0942ZM24.906 17.769C20.8734 17.769 17.5721 21.0549 17.5512 25.0733C17.5512 29.0917 20.8107 32.3776 24.8224 32.3985C28.855 32.4194 32.1772 29.1545 32.1981 25.1151C32.219 21.0967 28.9386 17.769 24.906 17.748V17.769Z" fill="black"/>
</g>
<defs>
<clipPath id="clip0_3021_4966">
<rect width="50" height="50" fill="white"/>
</clipPath>
</defs>
</svg>
